<svg width="21" height="20" viewBox="0 0 21 20" fill="none" xmlns="http://www.w3.org/2000/svg">
<path fill-rule="evenodd" clip-rule="evenodd" d="M20.2004 7.79999C20.2004 7.7 20.2004 7.6 20.1004 7.6C19.7911 6.06608 19.0644 4.64731 18.0004 3.49999C17.0797 2.47998 15.9528 1.66722 14.6943 1.11555C13.4358 0.563884 12.0744 0.285894 10.7004 0.299994C8.51979 0.274218 6.39412 0.983999 4.66648 2.31477C2.93883 3.64555 1.71003 5.51966 1.1784 7.63463C0.646768 9.74959 0.843332 11.982 1.73637 13.9715C2.6294 15.961 4.16679 17.5916 6.1004 18.6L6.7004 18.9C7.96246 19.4575 9.3212 19.7632 10.7004 19.8H11.1004C13.6296 19.6967 16.0207 18.6187 17.7729 16.792C19.5251 14.9652 20.5025 12.5313 20.5004 9.99999C20.5058 9.25611 20.4048 8.51527 20.2004 7.79999ZM2.5004 9.99999C2.48698 8.91943 2.68991 7.84711 3.09724 6.84618C3.50458 5.84524 4.10808 4.93594 4.87221 4.1718C5.63634 3.40767 6.54565 2.80417 7.54658 2.39684C8.54752 1.9895 9.61984 1.78657 10.7004 1.79999C12.0224 1.77727 13.329 2.08672 14.5004 2.69999H14.0004C12.7229 2.68662 11.4555 2.92838 10.2726 3.41111C9.0897 3.89384 8.01506 4.60784 7.11165 5.51124C6.20824 6.41465 5.49425 7.48929 5.01152 8.6722C4.52878 9.8551 4.28702 11.1225 4.3004 12.4C4.28643 13.5608 4.48994 14.714 4.9004 15.8C4.13459 15.0415 3.52785 14.1379 3.11574 13.1419C2.70363 12.146 2.49443 11.0778 2.5004 9.99999ZM7.6004 17.7C6.44602 16.1729 5.81479 14.3143 5.8004 12.4C5.8004 10.2252 6.66433 8.13952 8.20213 6.60172C9.73992 5.06392 11.8256 4.19999 14.0004 4.19999C15.0528 4.21183 16.0976 4.38035 17.1004 4.69999C17.3704 5.07748 17.6047 5.4792 17.8004 5.89999C15.2978 6.00328 12.9321 7.07066 11.1986 8.87869C9.46514 10.6867 8.49827 13.0952 8.5004 15.6C8.4955 16.4096 8.59635 17.2165 8.8004 18L7.6004 17.7ZM10.7004 18.3H10.4004C10.1626 17.4527 10.0283 16.5796 10.0004 15.7C10.0004 13.4987 10.8749 11.3876 12.4314 9.83101C13.988 8.27446 16.0991 7.39999 18.3004 7.39999H18.5004C18.8199 8.23015 18.9892 9.11053 19.0004 9.99999C19.0004 12.2013 18.1259 14.3124 16.5694 15.869C15.0128 17.4255 12.9017 18.3 10.7004 18.3Z" fill="#000"/>
</svg>
